<?xml version="1.0" standalone="no"?>
<!DOCTYPE svg PUBLIC "-//W3C//DTD SVG 20010904//EN"
 "http://www.w3.org/TR/2001/REC-SVG-20010904/DTD/svg10.dtd">
<svg version="1.0" xmlns="http://www.w3.org/2000/svg"
 width="128.000000pt" height="128.000000pt" viewBox="0 0 128.000000 128.000000"
 preserveAspectRatio="xMidYMid meet">

<g transform="translate(0.000000,128.000000) scale(0.100000,-0.100000)"
fill="#000000" stroke="none">
<path d="M876 1229 c-108 -26 -240 -131 -311 -250 -21 -35 -39 -65 -40 -67 -1
-1 -25 9 -53 23 -255 128 -490 -145 -418 -485 71 -337 379 -502 568 -304 33
35 88 129 88 150 0 5 5 25 10 45 10 36 12 37 70 43 129 15 288 128 365 260
144 247 92 521 -111 582 -52 16 -109 17 -168 3z m141 -35 c22 -6 21 -9 -25
-58 -67 -73 -107 -156 -142 -287 -31 -118 -63 -194 -104 -244 l-24 -30 -12 45
c-19 71 -59 148 -107 207 l-45 55 29 56 c34 69 141 181 203 212 86 44 167 60
227 44z m81 -36 c8 -8 0 -24 -37 -63 -66 -73 -115 -172 -145 -293 -29 -119
-78 -218 -139 -282 -38 -41 -42 -43 -45 -23 -2 14 11 41 37 72 54 70 89 146
118 264 29 121 65 195 133 276 54 64 59 68 78 49z m66 -82 c49 -104 43 -229
-18 -359 -64 -139 -187 -250 -311 -282 -101 -26 -104 -22 -39 48 77 81 127
178 158 304 14 56 38 128 54 160 34 66 110 163 128 163 6 0 19 -15 28 -34z
m-832 -238 c6 -103 32 -175 104 -295 75 -123 96 -193 98 -316 1 -77 -2 -100
-14 -107 -8 -5 -17 -10 -20 -10 -3 0 -5 48 -6 108 -1 127 -25 203 -104 333
-27 45 -59 107 -71 138 -27 70 -39 219 -18 231 22 14 26 4 31 -82z m145 51
c49 -30 129 -123 157 -183 80 -169 75 -372 -13 -499 -18 -26 -35 -47 -39 -47
-4 0 -6 20 -4 45 5 57 -22 192 -52 258 -13 29 -41 81 -64 116 -59 91 -83 162
-89 263 l-6 87 39 -10 c22 -6 53 -20 71 -30z m-227 -41 c0 -108 30 -195 115
-333 24 -38 53 -98 64 -133 24 -71 37 -192 27 -247 l-7 -38 -51 6 c-63 8 -121
41 -180 105 -171 183 -183 520 -23 661 20 17 40 31 45 31 6 0 10 -24 10 -52z"/>
<path d="M722 1038 c-16 -16 -15 -48 1 -48 16 0 47 32 47 48 0 16 -33 15 -48
0z"/>
<path d="M658 963 c-45 -55 -56 -93 -25 -93 16 0 70 87 62 100 -9 15 -20 12
-37 -7z"/>
<path d="M213 294 c-8 -22 33 -62 48 -47 9 9 8 18 -5 37 -19 30 -34 33 -43 10z"/>
<path d="M280 215 c0 -17 78 -77 94 -72 24 8 13 33 -24 60 -45 30 -70 35 -70
12z"/>
</g>
</svg>
